<svg width="22" height="30" viewBox="0 0 22 30" fill="none" xmlns="http://www.w3.org/2000/svg">
    <path fill-rule="evenodd" clip-rule="evenodd"
        d="M0 3.98686L7.08703 3.89162L7.84893 0.0623969L14.0493 0L14.9819 3.77668L21.4811 3.6913L21.7143 30L0.348112 29.7898L0 3.98686ZM11.0509 2.5977C9.50082 2.5977 9.40886 4.94253 11.0772 4.94253C12.5878 4.94253 12.5977 2.5977 11.0509 2.5977ZM2.23317 27.8851L17.1987 28.0821L19.954 23.133L19.6453 5.47127L17.9672 5.52381L17.1231 8.7422L4.42365 8.56814L3.87849 5.94089L1.76355 6.00657L2.23317 27.8851ZM6.86043 14.092H4.23317L4.18719 11.9573H6.81445L6.86043 14.092ZM6.93596 18.3842H4.3087L4.289 16.22H6.91626L6.93596 18.3842ZM17.7209 14.0033L8.36781 14.0591L8.32184 11.9212L17.6847 11.8686L17.7209 14.0033ZM17.7964 18.3744H8.46305L8.41708 16.2397H17.7603L17.7964 18.3744Z"
        fill="#333333" />
</svg>
    