<svg width="10" height="9" viewBox="0 0 10 9" fill="none" xmlns="http://www.w3.org/2000/svg">
    <path fill-rule="evenodd" clip-rule="evenodd"
        d="M10 8.39118L9.85275 8.97586L0.133071 9L0 8.40903L3.04319 7.35934L3.13918 6.54899C2.83294 6.11004 2.62731 5.61337 2.536 5.09202C1.79756 4.22708 1.93935 3.19209 2.38329 3.1501C2.38329 2.96326 2.38329 2.77012 2.38329 2.56858C2.38329 1.22078 3.27661 0 5.00109 0C6.72557 0 7.58617 1.1809 7.58617 2.77537V3.1501C8.06719 3.11127 8.25153 4.17985 7.5 5.07418C7.44293 5.5975 7.25954 6.10075 6.96444 6.54374L7.11169 7.39503L10 8.39118ZM6.47469 7.86634C6.46161 7.71309 6.44306 7.41498 6.4267 7.13156C6.2024 7.33227 5.96247 7.51615 5.70899 7.6816L4.39354 7.66795C4.14871 7.5138 3.91677 7.34147 3.69983 7.15255C3.68456 7.46746 3.6671 7.79811 3.65947 7.95766C3.62784 8.67355 6.54123 8.68195 6.47469 7.86739V7.86634ZM5.94568 5.59797C5.53992 5.25682 4.57897 5.25052 4.16012 5.59062C3.97688 6.41567 4.80257 6.38314 4.83312 5.86354H5.27923C5.27051 6.35689 6.10493 6.43247 5.94568 5.59902V5.59797ZM7.00916 2.51924C7.00916 2.00422 6.79656 1.51028 6.41814 1.1461C6.03971 0.781921 5.52645 0.577327 4.99127 0.577327C4.4561 0.577327 3.94284 0.781921 3.56441 1.1461C3.18598 1.51028 2.97339 2.00422 2.97339 2.51924C2.97339 3.83345 3.05956 4.6543 3.35842 5.27467L4.42845 4.71519H5.65663L6.67648 5.27362C6.9459 4.64696 7.00916 3.824 7.00916 2.52029V2.51924Z"
        fill="#333333" />
</svg>
    