<svg width="32" height="24" viewBox="0 0 32 24" fill="none" xmlns="http://www.w3.org/2000/svg">
    <path fill-rule="evenodd" clip-rule="evenodd"
        d="M27.5034 10.4593L25.3424 14.2144L22.0729 14.311L22.8356 12.9102L21.5644 10.4975H20.5475L20.3339 12.0814L21.4907 12.2492C21.4907 12.2492 21.4525 12.5568 21.3915 13.0907L20.85 13.3958L20.8144 13.9398L21.2619 14.2449C21.2619 14.278 21.2619 14.3136 21.2619 14.3466L17.1152 14.4712C17.1661 14.2169 17.2144 13.9424 17.2602 13.7085L17.8093 13.5305L17.9237 12.9992L17.4737 12.5415C17.5703 12.0331 17.6288 11.7 17.6288 11.7L18.8771 11.8805L20.1534 3.15L19.561 2.40254L20.3847 0L22.0932 0.254237L22.228 2.77119L21.5085 3.30508L20.9771 7.20254C21.3287 7.0512 21.7235 7.03384 22.087 7.15375C22.4505 7.27367 22.7575 7.52255 22.95 7.85339L24.2746 10.2432L24.7424 9.37881L24.6788 5.13305L28.2381 3.58475L29.0237 4.32203L27.1525 6.45763L28.5432 7.95L30.6356 5.89576L31.439 6.79068L29.733 10.4364L27.5034 10.4593ZM13.95 10.4237L12.4551 8.06441H18.1347L18.0127 10.4593L13.95 10.4237ZM8.35678 7.79492C8.86525 6.84153 10.4644 6.77797 11.0008 7.84576C11.5093 8.86271 14.6263 14.7432 14.9339 15.3229V15.4195L24.6686 15.361V15.3814L27.0864 15.3559L26.9949 24L4.59407 23.7661L4.17203 15.6814L6.51864 11.2475L4.81525 7.58644L1.76441 9.27203L0 5.68475L3.13729 3.99915L2.71525 3.09407L4.57118 2.34661L4.95254 3.02288L6.95084 1.94746L10.3195 3.20085L10.828 4.29152L6.88729 6.46017L8.00593 8.44068L8.35678 7.79492Z"
        fill="#333333" />
</svg>
    