<svg width="30" height="32" viewBox="0 0 30 32" fill="none" xmlns="http://www.w3.org/2000/svg">
    <path fill-rule="evenodd" clip-rule="evenodd"
        d="M28.3929 19.5952C27.899 19.8472 27.3274 19.9149 26.7857 19.7855L26.61 18.568L21.2961 15.5144L20.6221 17.4177L19.47 17.4764L19.64 14.5628L8.73848 8.29599L9.89055 10.745L11.1636 10.6191L13.8998 12.2481L14.8214 17.7255L13.6694 17.7871L11.9211 14.5823L7.24366 14.1457C7.24366 14.1457 6.63018 8.70183 6.50922 7.79778C6.47257 7.54083 6.48035 7.27973 6.53226 7.02528L5.33122 6.33395L2.96083 9.15805C2.09677 8.90335 0.535714 8.10286 0 7.4787L1.44009 4.09202L0.711405 3.67498L1.53514 2.19435L2.32719 2.68416L4.9568 0C5.79205 0.0867664 7.44528 1.24552 7.68145 1.79411L6.14631 4.98487L7.66417 5.90011C7.98741 5.85835 8.31559 5.92598 8.59357 6.09163C8.87155 6.25728 9.08239 6.51086 9.19067 6.80976L14.879 10.2468L18.4764 9.88857L18.4245 12.388L19.7206 13.1689L19.9107 9.88857L21.7137 10.0705C21.7137 10.0705 26.9672 15.8978 28.1365 17.1322C28.5835 17.5471 28.8556 18.1088 28.8998 18.708L30 19.3713L29.424 20.211L28.3929 19.5952ZM18.3785 6.47389C18.3785 10.0537 13.9286 9.73743 13.5397 6.7118C13.1336 3.56582 18.3785 2.93886 18.3785 6.47389ZM15.481 13.1913L18.3612 14.9126L18.3065 17.5408L16.0023 17.6612L15.481 13.1913ZM13.7529 18.7891L20.5962 18.7471L24.9914 23.7852L28.4879 31.7201L23.8796 31.8517L21.731 26.4022L17.4626 23.6033L13.822 26.8528L13.701 31.9496L9.23963 32L9.91359 23.5781L13.7529 18.7891Z"
        fill="#333333" />
</svg>
    