<svg width="197" height="24" viewBox="0 0 197 24" fill="none" xmlns="http://www.w3.org/2000/svg">
    <path
        d="M21.2506 4.38603C17.9958 0.436909 13.4632 0.0762211 12.6797 0.0235662C7.11131 -0.326589 3.51734 3.33293 3.02044 3.85684C5.04221 7.05036 7.17178 9.03808 8.76764 10.2702C11.1522 12.1131 13.2713 12.9846 16.1212 15.8042C17.2912 16.9627 18.1509 18.021 18.6951 18.7371C18.2639 19.1636 15.2457 22.057 10.9682 21.5989C7.05873 21.1777 3.69875 18.1316 2.62871 13.9534H6.44615V11.376H0.0048671C-0.0214238 12.2685 -0.0582318 16.652 3.30701 20.2167C3.63039 20.5563 7.82905 24.8477 13.8917 23.8499C18.3297 23.1206 20.8457 20.043 21.4346 19.2768C21.0113 18.4107 20.4145 17.3655 19.5601 16.2755C18.8134 15.3225 18.0589 14.5669 17.3937 13.9903H23.8455C23.9638 13.261 24.6342 8.49837 21.2506 4.38603ZM12.6456 7.09775C11.8411 8.18508 10.3398 8.26669 9.56688 7.50583C8.85966 6.81078 8.80971 5.46282 9.63524 4.72565C10.3398 4.09906 11.4414 4.13065 12.1539 4.73881C12.8191 5.30749 13.0268 6.27634 12.6456 7.09775Z"
        fill="#E30613" />
    <path
        d="M12.3116 18.774C13.3295 18.774 14.1546 17.9477 14.1546 16.9284C14.1546 15.9092 13.3295 15.0829 12.3116 15.0829C11.2938 15.0829 10.4686 15.9092 10.4686 16.9284C10.4686 17.9477 11.2938 18.774 12.3116 18.774Z"
        fill="#E30613" />
    <path
        d="M43.3551 15.1895V15.2212C43.9435 14.7587 44.2376 14.0491 44.2376 13.0925C44.2376 12.4621 44.0732 11.8697 43.741 11.3186C43.4089 10.7674 42.9723 10.3587 42.4282 10.0958L41.4381 9.62384L43.7821 8.26807C43.3203 7.71055 42.4377 7.4318 41.1376 7.4318C39.4705 7.4318 38.6354 8.06217 38.6354 9.32291L38.6512 17.0458H37.0158L37 9.59216C37 8.42645 37.4144 7.549 38.2432 6.95981C38.9676 6.45614 39.9324 6.20273 41.1376 6.20273C42.2384 6.20273 43.1621 6.36428 43.9087 6.69056C44.8735 7.12136 45.4555 7.79925 45.6548 8.72422L44.1427 9.608C45.2974 10.5235 45.8731 11.6828 45.8731 13.0925C45.8731 14.2487 45.4966 15.1958 44.7406 15.9371C43.9846 16.6783 43.0356 17.0489 41.8905 17.0489C41.881 17.0489 41.8652 17.0489 41.843 17.0489H41.6216C41.6121 17.0489 41.59 17.0553 41.5583 17.0648C41.5267 17.0648 41.5045 17.0648 41.4951 17.0648C40.9794 17.0648 40.5429 16.881 40.1823 16.5136C39.8217 16.1461 39.6382 15.7058 39.6382 15.1895C39.6382 14.6858 39.8185 14.2487 40.1823 13.8812C40.5429 13.5138 40.9826 13.3301 41.4951 13.3301C42.0075 13.3301 42.4472 13.5106 42.8078 13.8749C43.1684 14.236 43.3519 14.6605 43.3519 15.142C43.3551 15.1641 43.3551 15.1768 43.3551 15.1895ZM42.2859 15.1895C42.2859 14.9804 42.2068 14.7967 42.0486 14.6383C41.8905 14.4799 41.707 14.4007 41.4982 14.4007C41.2894 14.4007 41.106 14.4799 40.9478 14.6383C40.7896 14.7967 40.7106 14.9804 40.7106 15.1895C40.7106 15.4112 40.7896 15.5981 40.9478 15.7502C41.106 15.9022 41.2894 15.9782 41.4982 15.9782C41.707 15.9782 41.8905 15.9022 42.0486 15.7502C42.2068 15.5981 42.2859 15.4081 42.2859 15.1895Z"
        fill="#333333" />
    <path
        d="M57.3179 9.07263V12.9341C57.3179 13.9952 57.3116 14.5781 57.3021 14.6826C57.28 15.4904 56.951 16.1018 56.312 16.5104C55.7647 16.8778 55.0688 17.0616 54.2179 17.0616L51.2127 17.0457C50.4061 17.0457 49.7133 16.8715 49.1344 16.5262C48.4638 16.1176 48.1285 15.5284 48.1285 14.7618L48.1443 9.07263C48.1443 8.13816 48.7011 7.39692 49.8114 6.84891C50.7129 6.4086 51.6841 6.18686 52.7216 6.18686C53.7592 6.18686 54.7303 6.4086 55.635 6.84891C56.7548 7.39692 57.3179 8.13816 57.3179 9.07263ZM55.6793 14.7143L55.6635 9.07263C55.6635 8.53729 55.2871 8.10965 54.531 7.79605C53.9427 7.54263 53.3385 7.4191 52.7216 7.4191C52.0921 7.4191 51.4848 7.5458 50.8964 7.79605C50.1499 8.11282 49.7798 8.53729 49.7798 9.07263V14.746C49.7798 15.4714 50.2669 15.8325 51.2444 15.8325H54.2179C55.1922 15.8357 55.6793 15.4619 55.6793 14.7143ZM54.5469 11.6733C54.5469 12.1896 54.3634 12.6268 53.9964 12.9879C53.6295 13.349 53.1898 13.5328 52.6742 13.5328C52.1712 13.5328 51.7347 13.3522 51.3677 12.9879C51.0008 12.6268 50.8173 12.1865 50.8173 11.6733C50.8173 11.1601 51.0008 10.7198 51.3677 10.3587C51.7347 9.9976 52.1712 9.81388 52.6742 9.81388C53.1866 9.81388 53.6295 9.99444 53.9964 10.3587C54.3634 10.7198 54.5469 11.1601 54.5469 11.6733ZM53.4618 11.6733C53.4618 11.4642 53.3859 11.2805 53.2341 11.1221C53.0822 10.9637 52.8956 10.8846 52.6742 10.8846C52.4654 10.8846 52.2819 10.9637 52.1238 11.1221C51.9656 11.2805 51.8865 11.4642 51.8865 11.6733C51.8865 11.8824 51.9656 12.0661 52.1238 12.2245C52.2819 12.3829 52.4654 12.4621 52.6742 12.4621C52.8956 12.4621 53.0822 12.3829 53.2341 12.2245C53.3859 12.0693 53.4618 11.8855 53.4618 11.6733Z"
        fill="#333333" />
    <path
        d="M67.8612 17.0489H62.4773C61.6706 17.0489 60.9779 16.8747 60.399 16.5294C59.7157 16.1081 59.3772 15.5158 59.3772 14.7492L59.393 9.10751C59.393 8.17304 59.953 7.43181 61.0759 6.88379C61.9775 6.44348 62.9486 6.22174 63.9862 6.22174C65.4033 6.22174 66.6876 6.61454 67.8422 7.4033V9.32609C67.3804 8.74956 66.8047 8.29025 66.1182 7.95447C65.4318 7.6187 64.7201 7.45081 63.9862 7.45081C63.3567 7.45081 62.7493 7.57752 62.1609 7.82777C61.4049 8.14454 61.0285 8.56901 61.0285 9.10435L61.0443 14.7302C61.0443 15.4556 61.5283 15.8167 62.4931 15.8167H67.8612V17.0489Z"
        fill="#333333" />
    <path
        d="M71.8754 17.0648H70.24V7.45081H69.2183V6.22174H78.2527C79.0815 6.22174 79.7805 6.39913 80.3468 6.75708C81.0079 7.17839 81.3369 7.77708 81.3369 8.55317V13.3459C81.4223 13.3459 81.4982 13.3459 81.5741 13.3459C82.0771 13.3459 82.5136 13.5265 82.8806 13.8907C83.2475 14.2519 83.431 14.6922 83.431 15.2053C83.431 15.709 83.2475 16.1461 82.8806 16.5136C82.5136 16.881 82.0771 17.0648 81.5741 17.0648C81.0585 17.0648 80.6188 16.881 80.2519 16.5136C79.8849 16.1461 79.7015 15.709 79.7015 15.2053L79.7173 8.52149C79.7173 7.80876 79.2301 7.45081 78.2527 7.45081H76.554V17.0648H74.9185V7.45081H71.8818V17.0648H71.8754ZM80.7833 15.2053C80.7833 15.4144 80.8592 15.5981 81.0111 15.7565C81.1629 15.9149 81.3495 15.9941 81.571 15.9941C81.7797 15.9941 81.9632 15.9149 82.1214 15.7565C82.2796 15.5981 82.3586 15.4144 82.3586 15.2053C82.3586 14.9836 82.2796 14.7967 82.1214 14.6447C81.9632 14.4926 81.7797 14.4166 81.571 14.4166C81.3495 14.4166 81.1629 14.4926 81.0111 14.6447C80.8592 14.7967 80.7833 14.9836 80.7833 15.2053Z"
        fill="#333333" />
    <path
        d="M94.7588 9.07263V12.9341C94.7588 13.9952 94.7525 14.5781 94.743 14.6826C94.7208 15.4904 94.3919 16.1018 93.7529 16.5104C93.2056 16.8778 92.5097 17.0616 91.6588 17.0616L88.6536 17.0457C87.847 17.0457 87.1542 16.8715 86.5753 16.5262C85.9047 16.1176 85.5694 15.5284 85.5694 14.7618L85.5852 9.07263C85.5852 8.13816 86.142 7.39692 87.2523 6.84891C88.1538 6.4086 89.125 6.18686 90.1625 6.18686C91.2001 6.18686 92.1712 6.4086 93.0759 6.84891C94.1989 7.39692 94.7588 8.13816 94.7588 9.07263ZM93.1234 14.7143L93.1076 9.07263C93.1076 8.53729 92.7311 8.10965 91.9751 7.79605C91.3867 7.54263 90.7825 7.4191 90.1657 7.4191C89.5362 7.4191 88.9288 7.5458 88.3405 7.79605C87.5939 8.11282 87.2238 8.53729 87.2238 9.07263V14.746C87.2238 15.4714 87.711 15.8325 88.6884 15.8325H91.6619C92.6362 15.8357 93.1234 15.4619 93.1234 14.7143ZM91.9909 11.6733C91.9909 12.1896 91.8074 12.6268 91.4405 12.9879C91.0735 13.349 90.6339 13.5328 90.1182 13.5328C89.6153 13.5328 89.1787 13.3522 88.8118 12.9879C88.4448 12.6268 88.2614 12.1865 88.2614 11.6733C88.2614 11.1601 88.4448 10.7198 88.8118 10.3587C89.1787 9.9976 89.6153 9.81388 90.1182 9.81388C90.6307 9.81388 91.0735 9.99444 91.4405 10.3587C91.8074 10.7198 91.9909 11.1601 91.9909 11.6733ZM90.9027 11.6733C90.9027 11.4642 90.8268 11.2805 90.675 11.1221C90.5231 10.9637 90.3365 10.8846 90.1151 10.8846C89.9063 10.8846 89.7228 10.9637 89.5647 11.1221C89.4065 11.2805 89.3274 11.4642 89.3274 11.6733C89.3274 11.8824 89.4065 12.0661 89.5647 12.2245C89.7228 12.3829 89.9063 12.4621 90.1151 12.4621C90.3365 12.4621 90.5231 12.3829 90.675 12.2245C90.8268 12.0693 90.9027 11.8855 90.9027 11.6733Z"
        fill="#333333" />
    <path
        d="M98.4915 17.0648H96.856V6.2059H98.4915V11.2964C99.4974 9.7949 100.883 8.569 102.648 7.62503C103.73 7.04851 104.752 6.67789 105.716 6.52267L106.061 7.72006C105.327 7.84677 104.53 8.14136 103.67 8.60385C102.076 9.45596 100.826 10.552 99.9245 11.8983C100.333 12.8866 100.889 13.7957 101.592 14.6256C101.845 14.9297 102.142 15.1673 102.49 15.3352C102.49 15.294 102.49 15.2528 102.49 15.2085C102.49 14.6953 102.67 14.255 103.034 13.8939C103.395 13.5328 103.834 13.3491 104.347 13.3491C104.859 13.3491 105.299 13.5296 105.663 13.8939C106.023 14.255 106.207 14.6953 106.207 15.2085C106.207 15.7248 106.026 16.162 105.663 16.5231C105.299 16.8842 104.862 17.0679 104.347 17.0679L104.062 17.0521C102.363 16.9159 101.073 16.3172 100.19 15.256C99.7916 14.7935 99.4088 14.2487 99.0419 13.6183C98.6749 14.67 98.4915 15.6742 98.4915 16.6276V17.0648ZM105.131 15.2053C105.131 14.9963 105.052 14.8125 104.894 14.6542C104.736 14.4958 104.552 14.4166 104.344 14.4166C104.135 14.4166 103.951 14.4958 103.793 14.6542C103.635 14.8125 103.556 14.9963 103.556 15.2053C103.556 15.4144 103.635 15.5981 103.793 15.7565C103.951 15.9149 104.135 15.9941 104.344 15.9941C104.552 15.9941 104.736 15.9149 104.894 15.7565C105.052 15.5981 105.131 15.4144 105.131 15.2053Z"
        fill="#333333" />
    <path d="M112.907 12.0535H108.136V10.9828H112.907V12.0535Z" fill="#333333" />
    <path
        d="M116.937 6.01584H125.089C125.161 6.00634 125.24 6 125.326 6C125.838 6 126.278 6.18373 126.639 6.55118C126.999 6.91863 127.183 7.35894 127.183 7.87528C127.183 8.37894 127.002 8.81925 126.639 9.19304C126.275 9.56683 125.838 9.75372 125.326 9.75372C124.823 9.75372 124.386 9.56683 124.019 9.19304C123.652 8.81925 123.469 8.38211 123.469 7.87528C123.469 7.80242 123.475 7.72956 123.485 7.65354L121.834 7.66938V17.0616H120.182L120.198 7.66938L118.547 7.65354C118.556 7.7264 118.563 7.79925 118.563 7.87528C118.563 8.37894 118.379 8.81925 118.012 9.19304C117.645 9.56683 117.209 9.75372 116.706 9.75372C116.193 9.75372 115.754 9.56683 115.393 9.19304C115.032 8.81925 114.849 8.38211 114.849 7.87528C114.849 7.36211 115.029 6.91863 115.393 6.55118C115.754 6.18373 116.193 6 116.706 6C116.785 6 116.864 6.00634 116.937 6.01584ZM116.699 8.66403C116.908 8.66403 117.092 8.58484 117.25 8.42646C117.408 8.26807 117.487 8.08434 117.487 7.87528C117.487 7.65354 117.408 7.46665 117.25 7.3146C117.092 7.16255 116.908 7.08652 116.699 7.08652C116.478 7.08652 116.291 7.16255 116.14 7.3146C115.988 7.46665 115.912 7.65354 115.912 7.87528C115.912 8.08434 115.988 8.26807 116.14 8.42646C116.295 8.58484 116.481 8.66403 116.699 8.66403ZM125.326 8.66403C125.547 8.66403 125.734 8.58484 125.886 8.42646C126.038 8.26807 126.113 8.08434 126.113 7.87528C126.113 7.65354 126.038 7.46665 125.886 7.3146C125.734 7.16255 125.547 7.08652 125.326 7.08652C125.117 7.08652 124.934 7.16255 124.775 7.3146C124.617 7.46665 124.538 7.65354 124.538 7.87528C124.538 8.08434 124.617 8.26807 124.775 8.42646C124.934 8.58484 125.117 8.66403 125.326 8.66403Z"
        fill="#333333" />
    <path
        d="M135.1 11.9109C135.1 12.12 135.062 12.3259 134.99 12.5255H136.815V9.07266C136.815 8.55949 136.416 8.13819 135.619 7.81192C134.99 7.5585 134.367 7.43496 133.747 7.43496C133.139 7.43496 132.519 7.56167 131.89 7.81192C131.093 8.12869 130.694 8.54366 130.694 9.05683V14.746C130.694 15.4714 131.181 15.8325 132.159 15.8325H138.517V17.0616H132.127C131.32 17.0616 130.631 16.8842 130.064 16.5263C129.381 16.1176 129.043 15.5284 129.043 14.7618L129.027 9.05683C129.027 8.14136 129.615 7.41279 130.789 6.86478C131.735 6.42447 132.718 6.20273 133.747 6.20273C134.784 6.20273 135.771 6.42447 136.704 6.86478C137.868 7.4223 138.45 8.1572 138.45 9.07266V13.7704L133.228 13.7545C132.712 13.7545 132.276 13.5771 131.912 13.2192C131.551 12.8612 131.368 12.4273 131.368 11.9109C131.368 11.3978 131.551 10.9574 131.918 10.5963C132.285 10.2352 132.722 10.0515 133.225 10.0515C133.737 10.0515 134.18 10.232 134.547 10.5963C134.917 10.9574 135.1 11.3946 135.1 11.9109ZM134.012 11.9109C134.012 11.7019 133.936 11.5181 133.785 11.3597C133.633 11.2014 133.446 11.1222 133.225 11.1222C133.016 11.1222 132.832 11.2014 132.674 11.3597C132.516 11.5181 132.437 11.7019 132.437 11.9109C132.437 12.12 132.516 12.3037 132.674 12.4621C132.832 12.6205 133.016 12.6997 133.225 12.6997C133.446 12.6997 133.633 12.6205 133.785 12.4621C133.936 12.3037 134.012 12.12 134.012 11.9109Z"
        fill="#333333" />
    <path
        d="M144.179 15.2053C144.179 15.709 143.999 16.1461 143.635 16.5136C143.271 16.881 142.835 17.0648 142.322 17.0648C141.807 17.0648 141.37 16.881 141.01 16.5136C140.649 16.1461 140.465 15.709 140.465 15.2053C140.465 14.6922 140.646 14.2519 141.01 13.8907C141.37 13.5296 141.81 13.3459 142.322 13.3459C142.395 13.3459 142.468 13.3459 142.544 13.3459V7.45081H141.522V6.22174H146.985C147.814 6.22174 148.513 6.39913 149.079 6.75708C149.75 7.17839 150.085 7.77708 150.085 8.55317V17.0648H148.45V8.52149C148.45 7.80876 147.962 7.45081 146.985 7.45081H144.182V15.2053H144.179ZM143.11 15.2053C143.11 14.9836 143.031 14.7967 142.873 14.6447C142.715 14.4926 142.531 14.4166 142.322 14.4166C142.114 14.4166 141.93 14.4926 141.772 14.6447C141.614 14.7967 141.535 14.9836 141.535 15.2053C141.535 15.4144 141.614 15.5981 141.772 15.7565C141.93 15.9149 142.114 15.9941 142.322 15.9941C142.531 15.9941 142.715 15.9149 142.873 15.7565C143.031 15.5981 143.11 15.4144 143.11 15.2053Z"
        fill="#333333" />
    <path
        d="M158.408 11.9109C158.408 12.12 158.37 12.3259 158.297 12.5255H160.122V9.07266C160.122 8.55949 159.724 8.13819 158.926 7.81192C158.297 7.5585 157.674 7.43496 157.054 7.43496C156.446 7.43496 155.826 7.56167 155.197 7.81192C154.4 8.12869 154.001 8.54366 154.001 9.05683V14.746C154.001 15.4714 154.488 15.8325 155.466 15.8325H161.824V17.0616H155.434C154.628 17.0616 153.938 16.8842 153.372 16.5263C152.688 16.1176 152.35 15.5284 152.35 14.7618L152.334 9.05683C152.334 8.14136 152.923 7.41279 154.096 6.86478C155.042 6.42447 156.026 6.20273 157.054 6.20273C158.091 6.20273 159.078 6.42447 160.011 6.86478C161.176 7.4223 161.758 8.1572 161.758 9.07266V13.7704L156.532 13.7545C156.016 13.7545 155.58 13.5771 155.216 13.2192C154.855 12.8612 154.672 12.4273 154.672 11.9109C154.672 11.3978 154.855 10.9574 155.222 10.5963C155.589 10.2352 156.026 10.0515 156.529 10.0515C157.041 10.0515 157.484 10.232 157.851 10.5963C158.224 10.9574 158.408 11.3946 158.408 11.9109ZM157.323 11.9109C157.323 11.7019 157.247 11.5181 157.095 11.3597C156.943 11.2014 156.756 11.1222 156.535 11.1222C156.326 11.1222 156.143 11.2014 155.985 11.3597C155.826 11.5181 155.747 11.7019 155.747 11.9109C155.747 12.12 155.826 12.3037 155.985 12.4621C156.143 12.6205 156.326 12.6997 156.535 12.6997C156.756 12.6997 156.943 12.6205 157.095 12.4621C157.247 12.3037 157.323 12.12 157.323 11.9109Z"
        fill="#333333" />
    <path
        d="M165.225 17.0648H163.589V6.2059H165.225V11.2964C166.231 9.7949 167.616 8.569 169.381 7.62503C170.463 7.04851 171.485 6.67789 172.45 6.52267L172.794 7.72006C172.06 7.84677 171.263 8.14136 170.403 8.60385C168.809 9.45596 167.559 10.552 166.658 11.8983C167.066 12.8866 167.622 13.7957 168.325 14.6256C168.578 14.9297 168.875 15.1673 169.223 15.3352C169.223 15.294 169.223 15.2528 169.223 15.2085C169.223 14.6953 169.403 14.255 169.767 13.8939C170.128 13.5328 170.567 13.3491 171.08 13.3491C171.592 13.3491 172.032 13.5296 172.396 13.8939C172.756 14.255 172.94 14.6953 172.94 15.2085C172.94 15.7248 172.76 16.162 172.396 16.5231C172.032 16.8842 171.595 17.0679 171.08 17.0679L170.795 17.0521C169.096 16.9159 167.806 16.3172 166.923 15.256C166.525 14.7935 166.142 14.2487 165.775 13.6183C165.408 14.67 165.225 15.6742 165.225 16.6276V17.0648ZM171.864 15.2053C171.864 14.9963 171.785 14.8125 171.627 14.6542C171.469 14.4958 171.285 14.4166 171.077 14.4166C170.868 14.4166 170.684 14.4958 170.526 14.6542C170.368 14.8125 170.289 14.9963 170.289 15.2053C170.289 15.4144 170.368 15.5981 170.526 15.7565C170.684 15.9149 170.868 15.9941 171.077 15.9941C171.285 15.9941 171.469 15.9149 171.627 15.7565C171.788 15.5981 171.864 15.4144 171.864 15.2053Z"
        fill="#333333" />
    <path
        d="M184.046 9.07263V12.9341C184.046 13.9952 184.04 14.5781 184.03 14.6826C184.008 15.4904 183.679 16.1018 183.04 16.5104C182.493 16.8778 181.797 17.0616 180.946 17.0616L177.941 17.0457C177.134 17.0457 176.442 16.8715 175.863 16.5262C175.192 16.1176 174.857 15.5284 174.857 14.7618L174.873 9.07263C174.873 8.13816 175.429 7.39692 176.54 6.84891C177.441 6.4086 178.412 6.18686 179.453 6.18686C180.494 6.18686 181.462 6.4086 182.366 6.84891C183.486 7.39692 184.046 8.13816 184.046 9.07263ZM182.411 14.7143L182.395 9.07263C182.395 8.53729 182.019 8.10965 181.263 7.79605C180.674 7.54263 180.073 7.4191 179.453 7.4191C178.824 7.4191 178.216 7.5458 177.628 7.79605C176.881 8.11282 176.511 8.53729 176.511 9.07263V14.746C176.511 15.4714 176.998 15.8325 177.976 15.8325H180.949C181.924 15.8357 182.411 15.4619 182.411 14.7143ZM181.278 11.6733C181.278 12.1896 181.095 12.6268 180.728 12.9879C180.361 13.349 179.921 13.5328 179.406 13.5328C178.903 13.5328 178.466 13.3522 178.099 12.9879C177.732 12.6268 177.549 12.1865 177.549 11.6733C177.549 11.1601 177.732 10.7198 178.099 10.3587C178.466 9.9976 178.903 9.81388 179.406 9.81388C179.918 9.81388 180.361 9.99444 180.728 10.3587C181.095 10.723 181.278 11.1601 181.278 11.6733ZM180.19 11.6733C180.19 11.4642 180.114 11.2805 179.962 11.1221C179.811 10.9637 179.624 10.8846 179.402 10.8846C179.194 10.8846 179.01 10.9637 178.852 11.1221C178.694 11.2805 178.615 11.4642 178.615 11.6733C178.615 11.8824 178.694 12.0661 178.852 12.2245C179.01 12.3829 179.194 12.4621 179.402 12.4621C179.624 12.4621 179.811 12.3829 179.962 12.2245C180.114 12.0693 180.19 11.8855 180.19 11.6733Z"
        fill="#333333" />
    <path
        d="M190.012 15.1895C190.012 15.7058 189.829 16.1461 189.462 16.5136C189.095 16.881 188.658 17.0648 188.155 17.0648C187.64 17.0648 187.2 16.881 186.833 16.5136C186.466 16.1461 186.283 15.7058 186.283 15.1895C186.283 14.6858 186.466 14.2487 186.833 13.8812C187.2 13.5138 187.64 13.3301 188.155 13.3301C188.228 13.3301 188.301 13.3364 188.377 13.3459V6.22174H190.044L192.704 12.8739L195.333 6.22174H197V17.0648H195.365V10.4443L192.704 17.1756L190.012 10.4126V15.1895ZM188.943 15.1895C188.943 14.9804 188.864 14.7967 188.706 14.6383C188.548 14.4799 188.364 14.4007 188.155 14.4007C187.934 14.4007 187.747 14.4799 187.596 14.6383C187.444 14.7967 187.368 14.9804 187.368 15.1895C187.368 15.4112 187.444 15.5981 187.596 15.7502C187.747 15.9022 187.934 15.9782 188.155 15.9782C188.364 15.9782 188.548 15.9022 188.706 15.7502C188.864 15.595 188.943 15.4081 188.943 15.1895Z"
        fill="#333333" />
</svg>
    