<svg
    width="18"
    height="16"
    viewBox="0 0 18 16"
    fill="none"
    xmlns="http://www.w3.org/2000/svg"
>
    <path
        d="M9 10.5C10.3807 10.5 11.5 9.38071 11.5 8C11.5 6.61929 10.3807 5.5 9 5.5C7.61929 5.5 6.5 6.61929 6.5 8C6.5 9.38071 7.61929 10.5 9 10.5Z"
        fill="#333333"
    />
    <path
        fillRule="evenodd"
        clipRule="evenodd"
        d="M0.102842 7.53891C1.34222 3.81309 4.85659 1.125 9.00043 1.125C13.1423 1.125 16.6554 3.8106 17.8963 7.53371C17.9966 7.8346 17.9967 8.16015 17.8966 8.46109C16.6572 12.1869 13.1428 14.875 8.99897 14.875C4.85706 14.875 1.34403 12.1894 0.103115 8.46629C0.00283087 8.16541 0.00273542 7.83986 0.102842 7.53891ZM13.375 8C13.375 10.4162 11.4162 12.375 9 12.375C6.58375 12.375 4.625 10.4162 4.625 8C4.625 5.58375 6.58375 3.625 9 3.625C11.4162 3.625 13.375 5.58375 13.375 8Z"
        fill="#333333"
    />
</svg>