<svg
    width="18"
    height="16"
    viewBox="0 0 18 16"
    fill="none"
    xmlns="http://www.w3.org/2000/svg"
>
    <path
        d="M1.92011 0.180242C1.67527 -0.0600806 1.2783 -0.0600806 1.03346 0.180242C0.788613 0.420565 0.788613 0.810205 1.03346 1.05053L16.0805 15.8198C16.3253 16.0601 16.7223 16.0601 16.9671 15.8198C17.212 15.5794 17.212 15.1898 16.9671 14.9495L1.92011 0.180242Z"
        fill="#333333"
    />
    <path
        d="M17.9248 8.45399C17.47 9.79586 16.7099 11.001 15.7252 11.9899L13.1351 9.44757C13.2995 8.99516 13.389 8.50784 13.389 8C13.389 5.62093 11.4241 3.69231 9.0003 3.69231C8.4829 3.69231 7.98642 3.78019 7.5255 3.94157L5.45503 1.90933C6.54917 1.47185 7.74619 1.23077 9.00073 1.23077C13.1556 1.23077 16.6797 3.87505 17.9245 7.54089C18.0251 7.83714 18.0252 8.15768 17.9248 8.45399Z"
        fill="#333333"
    />
    <path
        d="M12.1351 8C12.1351 8.14783 12.1245 8.29322 12.1039 8.43549L8.55662 4.95366C8.70156 4.9335 8.84969 4.92308 9.0003 4.92308C10.7316 4.92308 12.1351 6.30066 12.1351 8Z"
        fill="#333333"
    />
    <path
        d="M9.44398 11.0463L5.89666 7.56451C5.87612 7.70678 5.8655 7.85217 5.8655 8C5.8655 9.69934 7.269 11.0769 9.0003 11.0769C9.15091 11.0769 9.29904 11.0665 9.44398 11.0463Z"
        fill="#333333"
    />
    <path
        d="M4.61158 8C4.61158 7.49216 4.70112 7.00484 4.86553 6.55243L2.27505 4.00977C1.29026 4.99875 0.530052 6.20401 0.0752456 7.54601C-0.0251753 7.84232 -0.0250796 8.16286 0.0755195 8.45912C1.32033 12.125 4.84437 14.7692 8.99927 14.7692C10.254 14.7692 11.4511 14.5281 12.5454 14.0905L10.4751 12.0584C10.0142 12.2198 9.51769 12.3077 9.0003 12.3077C6.57648 12.3077 4.61158 10.3791 4.61158 8Z"
        fill="#333333"
    />
</svg>