<svg width="14" height="14" viewBox="0 0 14 14" fill="currentColor"
    xmlns="http://www.w3.org/2000/svg">
    <path fill-rule="evenodd" clip-rule="evenodd"
        d="M10.2165 13.2312C8.99564 14.0396 7.95294 14.1869 6.46578 13.7836C4.77796 13.3325 3.22142 12.8887 1.68925 12.4818C0.532154 12.1743 -0.0323277 11.0658 0.00142869 9.67927C0.0351851 7.79742 0.0408108 6.54899 0.0333094 4.77209C0.0333094 3.40029 0.220845 2.66375 1.92179 1.81305C3.10889 1.2183 3.2683 1.1115 4.32975 0.57751C5.56749 -0.0430224 6.47141 -0.175598 7.96419 0.238704C9.42509 0.643799 10.5297 1.02312 12.0056 1.43189C13.5359 1.8554 13.7684 2.90497 13.8659 4.5051C13.9372 5.69645 13.9653 7.59671 13.9916 8.30747C14.0647 10.3661 13.6653 10.8191 12.632 11.5924C11.8649 12.1651 11.2798 12.5278 10.2165 13.2312ZM2.30061 11.0824C3.49334 11.0824 3.50084 8.93169 2.27999 8.93169C1.05913 8.93169 0.987866 11.0824 2.30061 11.0824ZM2.41689 5.19008C1.19228 5.19008 1.13414 7.34261 2.43939 7.34261C3.62274 7.34997 3.63024 5.19008 2.40939 5.19008H2.41689ZM5.95756 12.2093C7.14841 12.2093 7.15591 10.0586 5.93693 10.0586C4.71795 10.0586 4.64481 12.2166 5.95006 12.2166L5.95756 12.2093ZM6.00444 8.19883C7.19529 8.19883 7.20467 6.04814 5.98381 6.04814C4.76296 6.04814 4.69169 8.2062 5.99694 8.2062L6.00444 8.19883ZM6.75459 1.86461C5.21304 1.86461 5.1399 3.26587 6.78084 3.26587C8.268 3.27324 8.27738 1.87566 6.74146 1.87566L6.75459 1.86461ZM10.0552 9.13055C9.05377 9.13055 9.00501 11.2812 10.0721 11.2812C11.0454 11.2812 11.0529 9.13055 10.0552 9.13055ZM11.9568 4.63767C10.9554 4.63767 10.9066 6.7902 11.9737 6.7902C12.9489 6.78652 12.9545 4.63767 11.9568 4.63767Z"
        fill="currentColor" />
</svg>
    