<svg width="18" height="18" viewBox="0 0 18 18" fill="none" xmlns="http://www.w3.org/2000/svg">
    <path fill-rule="evenodd" clip-rule="evenodd"
        d="M18 9.73584L17.0126 13.1829L14.1506 12.9942C13.8302 13.4587 13.4492 13.8771 13.0181 14.2379L13.245 17.1398L9.81261 18L8.3816 15.3924C8.2017 15.3593 8.01772 15.3199 7.83169 15.2702C7.39135 15.153 6.95963 15.0048 6.53969 14.8266L3.98637 16.4972L1.53322 13.9063L3.02351 11.5765C2.71858 10.9238 2.52767 10.2225 2.45928 9.50368L0 8.13358L0.930153 4.9415L3.55911 5.03063C3.97442 4.37415 4.4995 3.79616 5.11073 3.32266L4.98808 0.781436L8.17717 0L9.36491 2.10801C10.2582 2.19423 11.1298 2.43762 11.9407 2.82727L14.2855 1.38669L16.5465 3.80147L15.048 6.23906C15.2939 6.92315 15.4318 7.64224 15.4569 8.36987L18 9.73584ZM9.87189 5.43689C5.52981 4.27821 3.38126 11.0334 8.4 12.3703C12.6296 13.5083 14.2978 6.61838 9.87189 5.43689Z"
        fill="black" />
</svg>
    