<svg width="8" height="13" viewBox="0 0 8 13" fill="none" xmlns="http://www.w3.org/2000/svg">
    <path fill-rule="evenodd" clip-rule="evenodd"
        d="M7.65284 2.50814C7.45491 3.35879 6.95026 6.68131 6.95026 6.68131C6.95026 6.68131 6.98199 9.86785 6.95026 11.6885C6.93515 12.4651 6.68887 12.8806 5.89261 12.8806C4.55846 12.8806 2.34798 13 1.05765 13C0.241748 13 0 12.314 0 11.4498C0 10.9965 0.0649698 0.117852 0.0649698 0.117852L5.88959 0C6.34733 0.369646 6.77944 0.769955 7.18294 1.19816C7.51534 1.55625 7.85228 1.65295 7.65284 2.50814ZM1.71037 2.27092L1.12564 6.19933L1.0924 11.8895L6.01197 11.7701L5.89563 6.43805L6.59821 2.14702L1.71037 2.27092ZM3.57636 11.0736C1.42782 11.0736 1.32357 7.82508 3.61262 7.82508C5.70374 7.82508 5.71734 11.0736 3.57636 11.0736ZM3.57636 8.73768C2.57311 8.73768 2.61843 10.161 3.55974 10.161C4.50105 10.161 4.49802 8.73768 3.58089 8.73768H3.57636ZM3.1533 5.46048L3.51743 3.12006L4.66271 3.19712L4.22001 5.4635L3.1533 5.46048Z"
        fill="#333333" />
</svg>
    