<svg width="7" height="13" viewBox="0 0 7 13" fill="none" xmlns="http://www.w3.org/2000/svg">
    <path fill-rule="evenodd" clip-rule="evenodd"
        d="M5.34442 13L0.0589787 12.8806C0.0589787 12.8806 -0.00134804 2.00325 2.30212e-05 1.55003C2.30212e-05 0.685881 0.21528 0 0.959767 0C2.13202 0 4.13652 0.119349 5.34717 0.119349C6.0656 0.119349 6.29046 0.534805 6.30691 1.31133C6.33707 3.12423 6.30691 6.31795 6.30691 6.31795C6.30691 6.31795 6.76484 9.6416 6.94582 10.4906C7.1268 11.3397 6.82106 11.4424 6.51942 11.802C6.15307 12.2304 5.76048 12.6307 5.34442 13ZM5.34442 6.5627L5.45 1.23126L0.985817 1.11191L1.01187 6.80139L1.54247 10.7293L5.97785 10.8487L5.34442 6.5627ZM3.38518 7.167C5.28135 7.167 5.61452 10.1311 3.76222 10.1311C1.73442 10.1266 1.48077 7.16246 3.38518 7.16246V7.167ZM3.63745 9.29564C4.44364 9.29564 4.2983 8.00546 3.47292 8.00546C2.64754 8.00546 2.75449 9.29564 3.63745 9.29564ZM2.74352 4.7785L2.70787 2.21023L3.77319 2.23591L3.74028 4.8072L2.74352 4.7785Z"
        fill="#333333" />
</svg>
    